<?xml version="1.0" standalone="no"?>
<!DOCTYPE svg PUBLIC "-//W3C//DTD SVG 20010904//EN"
 "http://www.w3.org/TR/2001/REC-SVG-20010904/DTD/svg10.dtd">
<svg version="1.0" xmlns="http://www.w3.org/2000/svg"
 width="72.000000pt" height="72.000000pt" viewBox="0 0 72.000000 72.000000"
 preserveAspectRatio="xMidYMid meet">
<metadata>
Created by potrace 1.14, written by Peter Selinger 2001-2017
</metadata>
<g transform="translate(0.000000,72.000000) scale(0.100000,-0.100000)"
fill="#000000" stroke="none">
<path d="M210 625 c-173 -111 -154 -81 -158 -261 -4 -178 -7 -170 91 -235 32
-22 60 -39 62 -39 2 0 31 -18 64 -40 34 -23 72 -40 88 -40 32 0 254 134 291
176 21 24 22 34 22 169 0 144 0 145 -27 174 -48 50 -249 171 -286 171 -23 0
-65 -22 -147 -75z m227 18 c161 -102 194 -126 186 -134 -20 -20 -230 -150
-252 -156 -14 -3 -36 1 -55 12 -74 43 -226 145 -226 152 1 14 245 162 267 163
13 0 49 -16 80 -37z m-109 -320 c20 -22 22 -33 22 -153 0 -71 -3 -131 -7 -133
-9 -5 -254 149 -265 167 -9 13 -11 270 -2 278 8 8 224 -128 252 -159z m322 34
c0 -156 -1 -158 -98 -218 -37 -22 -92 -56 -122 -75 l-55 -34 -3 130 c-1 79 2
138 8 150 9 18 183 140 199 140 3 0 17 9 31 20 14 11 28 20 33 20 4 0 7 -60 7
-133z"/>
<path d="M236 585 c-54 -34 -97 -66 -96 -71 3 -11 126 -91 153 -100 10 -3 26
1 35 9 14 13 17 34 16 116 0 55 -2 102 -5 104 -2 2 -48 -24 -103 -58z"/>
<path d="M370 540 c0 -107 1 -111 24 -121 21 -10 35 -5 105 37 44 27 79 53 78
58 -3 8 -123 89 -189 127 -17 9 -18 2 -18 -101z"/>
<path d="M90 336 l0 -106 85 52 c47 29 85 55 85 58 -1 6 -129 86 -153 96 -15
6 -17 -4 -17 -100z"/>
<path d="M188 260 c-43 -27 -78 -51 -78 -54 0 -2 39 -27 87 -56 49 -29 96 -60
106 -68 20 -18 18 -26 21 107 2 140 -15 149 -136 71z"/>
<path d="M533 392 c-40 -26 -73 -50 -73 -53 0 -3 28 -23 63 -44 34 -21 71 -45
83 -52 21 -13 21 -12 21 92 0 70 -4 105 -11 104 -6 0 -44 -22 -83 -47z"/>
<path d="M415 304 c-18 -13 -20 -27 -20 -119 0 -58 1 -105 3 -105 7 0 82 43
145 84 l68 44 -69 45 c-103 67 -104 67 -127 51z"/>
</g>
</svg>
